<?xml version="1.0" standalone="no"?>
<!DOCTYPE svg PUBLIC "-//W3C//DTD SVG 20010904//EN"
 "http://www.w3.org/TR/2001/REC-SVG-20010904/DTD/svg10.dtd">
<svg version="1.0" xmlns="http://www.w3.org/2000/svg"
 width="500.000000pt" height="500.000000pt" viewBox="0 0 500.000000 500.000000"
 preserveAspectRatio="xMidYMid meet">
<metadata>
Created by potrace 1.14, written by Peter Selinger 2001-2017
</metadata>
<g transform="translate(0.000000,500.000000) scale(0.100000,-0.100000)"
fill="#000000" stroke="none">
<path d="M2205 4989 c-753 -90 -1431 -523 -1835 -1169 -179 -287 -309 -654
-355 -1003 -20 -156 -20 -478 0 -634 73 -555 320 -1059 715 -1453 372 -372
825 -606 1360 -702 110 -20 159 -23 405 -23 311 0 391 9 630 70 187 48 318 98
500 189 260 131 444 264 645 466 372 371 606 824 701 1357 30 167 38 547 15
723 -47 357 -175 720 -356 1010 -199 319 -490 611 -810 810 -191 120 -472 240
-692 295 -217 55 -316 67 -588 71 -140 1 -291 -2 -335 -7z m588 -175 c661 -79
1272 -459 1651 -1028 36 -54 66 -101 66 -105 0 -3 -195 -6 -432 -6 -238 0
-461 -2 -495 -6 -35 -3 -66 -2 -70 2 -5 4 -36 4 -71 0 -36 -4 -65 -4 -69 2 -3
5 -22 5 -42 1 -20 -4 -45 -7 -56 -6 -46 2 -113 2 -155 1 -25 0 -54 -1 -65 0
-11 0 -258 1 -550 1 -553 0 -655 2 -655 10 0 3 -30 6 -67 8 -149 7 -138 4
-139 37 0 19 8 38 24 53 18 17 21 26 13 36 -6 7 -7 16 -3 20 8 8 9 14 11 52 1
24 4 26 36 22 24 -3 35 0 35 9 0 7 5 13 12 13 6 0 8 3 5 6 -15 15 24 47 60 51
21 2 45 6 53 10 8 3 18 7 22 7 7 1 48 38 63 58 21 26 55 152 45 162 -6 6 -10
21 -10 35 0 68 -146 173 -260 187 -8 1 -42 9 -75 17 -49 13 -78 14 -159 7 -55
-6 -102 -8 -104 -5 -3 3 -10 1 -17 -5 -6 -5 -27 -11 -47 -14 -20 -2 -47 -11
-60 -20 -14 -9 -28 -13 -31 -9 -4 3 -7 1 -7 -5 0 -6 -8 -13 -18 -16 -9 -3 -28
-26 -42 -51 -33 -61 -33 -162 1 -220 25 -43 65 -86 73 -78 2 3 11 1 18 -3 13
-9 17 -10 57 -17 22 -3 24 -8 25 -68 l1 -64 35 -5 c30 -4 35 -9 35 -32 0 -15
8 -33 17 -40 10 -7 16 -22 13 -33 -2 -11 -4 -23 -4 -28 -1 -10 -141 -7 -161 4
-28 14 -72 28 -102 33 -10 1 -21 5 -24 9 -4 4 -16 7 -26 7 -10 0 -18 5 -18 11
0 6 -6 9 -14 6 -7 -3 -19 0 -25 6 -6 6 -20 12 -31 14 -11 2 -30 4 -42 6 -12 2
-24 9 -26 15 -2 7 -7 10 -12 7 -4 -3 -25 3 -46 12 -22 9 -46 18 -54 19 -8 1
-28 7 -45 14 -33 15 -40 17 -74 24 -12 3 -29 10 -37 16 -7 7 -18 9 -24 5 -5
-3 -10 -2 -10 3 0 20 246 265 344 344 163 132 339 240 514 317 404 178 807
238 1245 185z m-2178 -1038 c11 -4 28 -12 37 -17 10 -5 25 -9 33 -9 8 0 15 -4
15 -8 0 -9 11 -11 92 -15 32 -2 60 -6 64 -10 3 -3 16 -2 29 3 13 5 25 6 28 3
4 -3 20 -7 36 -8 17 -1 45 -12 63 -23 l33 -21 -45 2 c-30 1 -45 -2 -46 -10 -1
-7 -2 -17 -3 -22 -1 -9 -468 -8 -477 1 -2 3 14 37 37 76 44 72 51 76 104 58z
m3753 -210 c6 -3 21 -3 34 2 12 4 56 7 96 7 l73 -1 50 -108 c94 -202 169 -467
199 -706 13 -110 13 -420 0 -530 -42 -338 -165 -689 -339 -969 -248 -400 -636
-734 -1061 -914 -310 -131 -588 -188 -920 -188 -332 0 -610 57 -920 188 -425
180 -813 514 -1061 914 -52 83 -171 323 -203 408 l-17 44 83 -8 c46 -4 157 -9
248 -11 91 -2 174 -6 185 -8 11 -3 33 -5 48 -5 16 -1 26 -5 22 -10 -13 -22
-24 -113 -18 -158 5 -44 8 -49 32 -51 14 -1 46 -6 71 -12 68 -15 226 -20 239
-7 6 6 11 8 11 3 0 -4 11 6 25 21 13 15 25 22 25 15 0 -10 5 -10 20 -2 11 6
20 7 20 3 0 -4 19 -9 43 -9 49 -1 191 -12 257 -20 104 -12 133 -15 289 -29
107 -9 169 -11 176 -5 7 5 14 8 17 5 9 -9 47 40 52 67 2 15 0 43 -5 62 -9 34
-36 52 -88 58 -14 2 -26 9 -29 16 -3 10 20 11 105 6 59 -3 111 -8 114 -10 4
-2 19 7 35 21 22 19 28 32 27 62 -1 20 -6 39 -12 41 -6 2 -9 8 -5 13 3 5 0 9
-6 9 -6 0 -8 5 -5 10 4 6 12 7 18 3 13 -8 52 -14 109 -16 33 -2 37 -5 32 -22
-4 -11 -11 -22 -15 -23 -5 -2 -7 -7 -4 -11 2 -5 -7 -48 -21 -97 l-26 -90 -57
0 c-65 0 -120 -27 -147 -73 -9 -15 -32 -38 -52 -51 -118 -77 -165 -141 -173
-235 -3 -37 15 -96 42 -135 27 -40 73 -77 97 -80 4 -1 18 -8 31 -16 22 -15 53
-15 109 0 12 3 31 8 41 10 72 16 145 104 156 187 9 76 16 90 36 84 11 -4 31
-17 44 -31 27 -27 45 -31 45 -9 0 8 5 15 12 15 6 0 0 13 -15 28 -15 15 -27 33
-27 40 0 7 -4 12 -9 12 -13 0 -20 35 -9 54 13 24 26 20 62 -19 19 -19 36 -35
39 -35 2 0 12 11 21 24 15 23 14 26 -15 59 -32 36 -37 52 -17 52 19 0 46 58
43 93 -2 22 6 46 26 75 16 23 29 48 29 55 0 6 5 12 11 12 5 0 7 5 4 10 -3 6
-2 10 2 10 5 0 20 20 33 45 l25 45 77 -3 c43 -2 81 -7 85 -10 3 -4 23 -7 44
-7 20 0 39 -6 41 -12 8 -20 0 -89 -11 -102 -6 -7 -8 -24 -6 -38 6 -30 -14 -51
-53 -56 -35 -4 -43 -19 -39 -64 4 -35 -1 -43 -25 -39 -5 0 -8 -16 -7 -36 0
-33 1 -35 9 -15 9 20 32 32 29 15 -6 -34 14 -39 59 -15 12 7 22 8 22 3 0 -8
71 -8 90 -1 3 1 9 2 14 1 5 -1 16 1 25 5 30 12 115 13 130 1 12 -10 14 -9 8 5
-5 14 0 16 29 14 23 -3 34 0 34 9 0 7 8 16 17 19 12 5 13 10 6 17 -27 27 51
69 138 74 20 2 46 8 58 14 12 7 26 9 31 6 5 -3 11 -1 14 4 5 8 33 15 101 26 6
1 12 3 15 4 9 4 34 10 70 16 19 4 39 10 44 15 5 5 15 6 22 3 8 -3 21 0 29 7
12 10 15 10 16 -1 0 -10 2 -11 6 -1 6 15 43 16 43 1 0 -8 4 -8 13 -1 6 6 15
11 20 11 21 2 63 15 73 22 6 5 9 19 7 32 -3 17 -12 23 -34 23 -16 1 -29 -1
-29 -5 0 -4 -8 -7 -17 -7 -28 -1 -46 -8 -61 -21 -13 -12 -27 -15 -79 -16 -13
-1 -23 -5 -23 -10 0 -4 -8 -7 -17 -6 -10 1 -21 0 -25 -1 -5 -1 -17 -4 -28 -5
-11 -1 -21 -4 -22 -5 -2 -1 -12 -4 -23 -6 -23 -3 -59 -10 -128 -24 -27 -6 -52
-8 -57 -5 -5 3 -11 1 -15 -4 -3 -5 -13 -10 -23 -10 -44 -2 -62 -6 -62 -12 0
-4 -9 -5 -21 -2 -15 4 -19 11 -14 27 3 11 8 34 10 50 2 15 8 38 12 50 4 11 6
28 4 38 -5 37 23 28 67 -21 65 -70 93 -69 53 2 -10 19 -16 38 -13 43 4 5 43
10 87 12 87 2 212 8 345 17 144 9 183 16 273 50 42 15 68 21 72 14 4 -5 15 -7
26 -4 10 4 38 8 61 10 95 9 127 21 168 65 71 75 99 108 101 121 3 14 -9 104
-18 144 -2 11 -4 40 -3 65 1 25 1 50 1 55 -13 137 -12 135 -40 137 -25 1 -40
3 -51 8 -29 11 -60 3 -96 -26 -30 -25 -47 -32 -65 -28 -13 3 -53 7 -89 9 -35
2 -66 8 -68 14 -2 6 -16 8 -33 4 -16 -3 -29 -2 -29 3 0 5 -15 10 -33 12 -37 3
-56 6 -77 15 -8 3 -33 9 -55 12 -22 3 -49 8 -60 10 -11 2 -28 4 -37 4 -21 1
-108 90 -108 110 0 8 -2 12 -5 9 -7 -7 -84 65 -79 74 6 10 -25 38 -44 39 -79
6 -92 9 -110 27 -7 6 -22 12 -33 12 -10 0 -19 5 -19 10 0 6 -7 10 -15 10 -8 0
-15 5 -15 11 0 5 -4 8 -9 4 -5 -3 -12 -1 -16 5 -4 6 -10 8 -15 5 -5 -3 -13 3
-19 12 -6 10 -11 14 -11 9 0 -5 -7 -3 -15 4 -8 7 -15 10 -15 6 0 -3 -18 5 -40
19 -22 14 -40 23 -40 19 0 -3 -13 4 -29 15 -15 11 -31 18 -35 14 -3 -3 -6 -1
-6 6 0 7 -4 10 -9 6 -6 -3 -14 2 -19 11 -5 9 -12 15 -16 14 -12 -3 -116 43
-116 52 0 4 -8 8 -18 8 -10 0 -22 4 -28 10 -10 10 -70 25 -149 37 -22 3 -44 9
-50 13 -5 4 -27 8 -48 8 -20 1 -45 5 -55 10 -9 5 -30 10 -47 11 -37 1 -57 5
-70 12 -5 4 -25 7 -44 7 -43 1 -44 3 -27 38 9 15 13 30 11 32 -7 7 -65 -20
-65 -30 0 -5 -4 -6 -10 -3 -5 3 -10 1 -10 -5 0 -6 -4 -9 -9 -5 -5 3 -12 1 -16
-5 -14 -22 -20 -7 -17 43 3 40 0 54 -10 54 -7 1 -37 3 -66 6 -49 5 -54 4 -62
-19 -10 -24 -11 -25 -92 -19 -75 5 -156 12 -183 14 -6 1 -12 15 -13 33 -2 17
-7 37 -13 44 -7 8 -7 14 1 19 16 10 12 65 -5 65 -14 0 -18 -14 -18 -62 0 -10
-3 -18 -8 -18 -9 0 -24 -40 -21 -57 3 -12 -19 -18 -43 -13 -5 1 -37 4 -70 6
-94 6 -100 8 -101 35 -3 37 12 48 63 43 56 -4 73 8 73 52 0 25 5 34 23 40 12
5 25 7 30 6 4 -1 7 3 7 10 0 6 3 9 6 5 3 -3 15 3 27 13 14 14 25 17 37 10 10
-5 20 -6 24 -3 3 3 6 1 6 -5 0 -7 3 -11 8 -11 15 3 73 -14 78 -22 3 -5 10 -7
15 -3 5 3 17 0 25 -7 8 -6 17 -9 21 -6 3 4 13 1 21 -5 13 -12 28 -17 64 -22 9
-1 22 -7 30 -13 7 -6 18 -11 23 -12 20 0 100 -24 112 -33 7 -6 16 -7 21 -4 6
3 15 -1 22 -8 6 -8 20 -13 31 -11 10 2 19 -1 19 -7 0 -6 3 -8 6 -5 4 3 16 1
28 -5 11 -7 28 -13 37 -15 9 -1 29 -8 45 -14 16 -7 36 -13 45 -15 9 -2 29 -9
45 -15 16 -7 32 -12 36 -11 4 1 24 -6 45 -15 21 -9 45 -18 54 -19 9 -2 29 -9
45 -16 16 -6 36 -12 45 -13 9 -1 31 -10 49 -19 18 -9 39 -16 46 -16 7 0 25 -5
41 -12 51 -20 72 -23 276 -32 98 -5 106 -4 92 11 -9 8 -19 13 -22 10 -3 -4
-15 -1 -27 5 -11 7 -25 11 -30 10 -4 -2 -14 3 -22 9 -8 6 -14 8 -14 5 0 -4
-10 -1 -22 6 -13 7 -26 11 -30 10 -4 -1 -24 6 -45 15 -44 19 -38 17 -85 27
-21 5 -38 12 -38 18 0 5 -4 7 -9 4 -5 -3 -26 2 -47 11 -40 17 -44 18 -79 26
-11 2 -29 7 -40 11 -11 5 -31 12 -45 16 -21 7 -47 16 -70 25 -3 1 -20 6 -38
10 -18 4 -35 11 -38 16 -2 4 -11 6 -19 2 -8 -3 -15 0 -15 6 0 6 -10 11 -23 11
-13 0 -27 3 -31 7 -3 4 -17 8 -29 10 -12 2 -24 8 -25 13 -2 6 -8 8 -13 4 -5
-3 -15 -2 -21 3 -7 4 -22 9 -33 10 -11 2 -22 8 -23 13 -2 6 -8 8 -13 4 -5 -3
-15 -2 -21 3 -7 4 -22 9 -33 10 -10 2 -22 7 -25 11 -3 4 -12 8 -20 9 -32 4
-64 13 -69 20 -3 5 -13 9 -21 10 -29 3 -56 11 -96 28 -21 9 -40 16 -41 16 -14
-2 -65 14 -69 20 -3 5 -16 9 -30 9 -13 0 -24 5 -24 11 0 5 -4 7 -10 4 -5 -3
-10 0 -10 7 0 15 41 17 352 21 104 1 188 5 188 8 0 4 19 3 41 -2 23 -5 51 -6
63 -2 29 10 77 10 99 0 9 -4 23 -5 30 0 6 4 94 8 194 8 100 0 185 3 188 6 3 3
28 2 57 -2 28 -5 55 -6 60 -3 5 4 107 8 226 9 119 2 222 4 227 6 6 1 18 -1 27
-5 9 -4 25 -4 35 1 10 5 34 8 53 6 62 -4 449 2 454 8 7 6 82 2 94 -5z m-3740
-53 c28 -1 52 1 52 5 0 4 63 7 141 7 107 -1 142 -4 149 -14 4 -8 15 -11 23 -8
8 3 18 3 21 0 3 -3 43 -7 88 -8 105 -3 110 -4 127 -37 7 -15 17 -26 21 -23 5
3 16 2 25 -1 12 -5 15 -16 11 -50 -5 -50 10 -69 49 -61 21 3 31 -2 49 -30 25
-36 25 -82 0 -84 -56 -7 -67 -4 -69 19 -1 12 1 22 5 22 3 0 6 9 7 19 2 23 -21
35 -59 32 -22 -2 -26 1 -21 19 5 17 1 20 -23 20 -16 0 -50 2 -76 4 -26 3 -49
2 -52 -2 -3 -5 -6 -42 -7 -83 -3 -100 -5 -105 -56 -105 -24 0 -43 2 -43 6 0 5
-27 5 -97 -1 -18 -2 -33 -6 -33 -9 0 -4 -6 -7 -12 -7 -7 0 -33 -6 -58 -13 -25
-8 -49 -14 -55 -15 -5 -1 -12 -3 -15 -4 -24 -11 -127 -20 -280 -25 -47 -1 -92
-6 -99 -10 -10 -7 -12 -5 -6 4 6 9 4 11 -4 5 -16 -10 -91 -12 -91 -3 0 21 92
284 123 350 38 84 46 89 135 84 29 -2 55 1 59 7 3 5 8 5 12 1 3 -5 30 -10 59
-11z m1762 -528 c25 -2 56 -8 70 -11 14 -4 52 -8 85 -10 101 -5 197 -14 206
-19 4 -3 5 -18 2 -33 -3 -15 -6 -38 -7 -52 -2 -14 -6 -36 -9 -50 -4 -14 -9
-68 -12 -120 -5 -83 -8 -113 -14 -142 -1 -6 -148 -1 -186 7 -11 2 -31 6 -44 9
-14 3 -29 13 -34 22 -5 8 -24 31 -43 51 -19 19 -34 39 -34 44 0 5 -5 9 -10 9
-6 0 -14 8 -17 18 -4 9 -22 32 -40 49 -18 18 -33 37 -33 43 0 6 -4 8 -10 5 -5
-3 -10 0 -10 8 0 8 -6 20 -13 26 -10 7 -12 24 -8 53 4 24 6 57 6 75 l-1 32 55
-4 c31 -3 76 -7 101 -10z m672 -129 c4 -6 8 -7 8 -2 0 5 6 3 13 -3 8 -6 17 -8
20 -4 4 3 7 2 7 -3 0 -6 20 -18 45 -28 25 -11 45 -23 45 -28 0 -4 3 -8 8 -7
15 2 52 -14 52 -22 0 -5 3 -8 8 -8 4 1 10 0 15 -1 4 -1 10 -3 15 -5 22 -6 68
-28 80 -38 8 -6 21 -12 30 -13 8 -2 18 -8 22 -14 4 -7 11 -11 16 -11 18 1 44
-11 44 -20 0 -6 5 -7 10 -4 6 3 10 1 10 -4 0 -6 8 -11 18 -11 29 -1 117 -56
113 -71 -2 -8 -5 -48 -7 -89 -1 -41 -4 -75 -4 -75 -1 0 -3 -16 -4 -35 -3 -40
-14 -70 -27 -70 -5 0 -33 11 -64 25 -30 13 -56 23 -58 22 -1 -1 -17 8 -34 21
-18 13 -33 21 -33 18 0 -3 -56 23 -124 58 -69 35 -127 62 -130 58 -3 -3 -6 0
-6 6 0 7 -6 12 -13 12 -7 0 -29 11 -48 25 -20 13 -39 21 -43 18 -3 -4 -17 4
-31 17 -14 13 -25 21 -25 17 0 -8 -82 33 -91 45 -10 15 9 268 22 284 9 11 127
-39 141 -60z m1228 -936 c13 -11 27 -20 32 -20 4 0 8 -5 8 -11 0 -5 -4 -7 -10
-4 -5 3 -10 2 -10 -3 0 -7 -14 -8 -51 -3 -9 1 -9 61 0 61 4 0 18 -9 31 -20z
m-1696 -173 c3 4 6 1 6 -4 0 -15 -94 -113 -108 -113 -16 0 -15 10 4 56 24 58
41 74 69 64 13 -5 26 -6 29 -3z m692 -56 c-6 -8 -17 -67 -21 -103 0 -10 -4
-21 -8 -24 -4 -4 -7 -15 -7 -24 0 -12 -11 -16 -51 -15 l-50 0 3 60 c4 60 4 60
48 82 29 14 47 18 51 12 4 -7 9 -5 12 5 4 9 11 16 17 16 6 0 9 -4 6 -9z"/>
<path d="M3350 1436 c0 -2 7 -7 16 -10 8 -3 12 -2 9 4 -6 10 -25 14 -25 6z"/>
<path d="M3390 1430 c0 -5 5 -10 11 -10 5 0 7 5 4 10 -3 6 -8 10 -11 10 -2 0
-4 -4 -4 -10z"/>
<path d="M3070 1350 c0 -5 5 -10 11 -10 5 0 7 5 4 10 -3 6 -8 10 -11 10 -2 0
-4 -4 -4 -10z"/>
</g>
</svg>
